<svg width="26" height="26" viewBox="0 0 26 26" fill="none" xmlns="http://www.w3.org/2000/svg">
<path d="M13.0003 14.625V11.375L23.7126 11.375C23.7923 11.9051 23.8337 12.4477 23.8337 13C23.8337 18.9831 18.9834 23.8334 13.0003 23.8334C7.01724 23.8334 2.16699 18.9831 2.16699 13C2.16699 7.01694 7.01724 2.16669 13.0003 2.16669C15.9919 2.16669 18.7002 3.37925 20.6607 5.3397L18.3626 7.63779C16.9902 6.26548 15.0944 5.41669 13.0003 5.41669C8.81217 5.41669 5.41699 8.81186 5.41699 13C5.41699 17.1882 8.81217 20.5834 13.0003 20.5834C16.6307 20.5834 19.6653 18.0323 20.4091 14.625H13.0003Z" stroke="#838383" stroke-width="1.7" stroke-linecap="round" stroke-linejoin="round"/>
</svg>
