<svg width="26" height="26" viewBox="0 0 26 26" fill="none" xmlns="http://www.w3.org/2000/svg">
<path d="M13.0004 23.8334C18.9834 23.8334 23.8337 18.9831 23.8337 13C23.8337 7.01694 18.9834 2.16669 13.0004 2.16669C7.01727 2.16669 2.16702 7.01694 2.16702 13C2.16702 14.6374 2.53028 16.19 3.18061 17.5815L2.41974 22.2744C2.29562 23.04 2.9598 23.7012 3.72478 23.5737L8.37432 22.7988C9.77722 23.4623 11.3455 23.8334 13.0004 23.8334Z" stroke="#838383" stroke-width="1.7" stroke-linecap="square" stroke-linejoin="round"/>
<path d="M17.3337 16.3704V15.8978C17.3337 15.3108 16.9763 14.783 16.4313 14.565L15.9259 14.3628C15.3609 14.1368 14.7169 14.3816 14.4448 14.9259C14.4448 14.9259 13.2411 14.6852 12.2781 13.7222C11.3151 12.7593 11.0744 11.5556 11.0744 11.5556C11.6187 11.2834 11.8635 10.6395 11.6375 10.0745L11.4354 9.56907C11.2173 9.02406 10.6895 8.66669 10.1025 8.66669H9.62996C9.09813 8.66669 8.66699 9.09782 8.66699 9.62965C8.66699 13.8843 12.1161 17.3334 16.3707 17.3334C16.9025 17.3334 17.3337 16.9022 17.3337 16.3704Z" fill="#838383"/>
</svg>
