<svg width="204" height="108" viewBox="0 0 204 108" fill="none" xmlns="http://www.w3.org/2000/svg">
<path d="M37.2285 56.9943V37.1746L53.4038 43.3424C53.5557 43.4176 53.7076 43.4176 53.8594 43.3424L68.6678 37.5507C69.0855 37.4003 69.5411 37.7011 69.5411 38.1524V42.515C69.5411 42.7783 69.3893 43.0039 69.1235 43.1168L53.7076 49.0213C53.5557 49.0965 53.4038 49.0965 53.2519 49.0213L45.8477 46.2007C45.6958 45.3733 44.9744 44.7715 44.1011 44.7715C43.1139 44.7715 42.3545 45.5613 42.3545 46.5015C42.3545 47.4417 43.1518 48.2315 44.1011 48.2315C44.4428 48.2315 44.7846 48.1187 45.0503 47.9307L53.2519 51.0522C53.4038 51.1274 53.5557 51.1274 53.7076 51.0522L71.0979 44.3578C71.3637 44.245 71.5156 44.0194 71.5156 43.7561V35.2942C71.5156 34.8429 71.06 34.542 70.6423 34.6925L53.8594 41.2739C53.7076 41.3492 53.5557 41.3492 53.4038 41.2739L36.1653 34.6925C35.7476 34.542 35.292 34.8429 35.292 35.2942V58.273H35.9375C36.6589 58.3106 37.2285 57.7089 37.2285 56.9943ZM43.3037 46.5391C43.3037 46.1254 43.6454 45.7494 44.1011 45.7494C44.5188 45.7494 44.8985 46.0878 44.8985 46.5391C44.8985 46.9904 44.5567 47.2913 44.1011 47.2913C43.6834 47.2913 43.3037 46.9528 43.3037 46.5391Z" fill="#B0B0B0"/>
<path d="M70.907 46.3884C70.1856 46.3884 69.616 46.9526 69.616 47.6671L69.5401 64.1397C69.5401 64.4029 69.3882 64.6286 69.1224 64.7414L53.8583 70.5331C53.7065 70.5707 53.5546 70.6083 53.4027 70.5331L37.6451 64.6662C37.3793 64.5534 37.2274 64.3277 37.2274 64.0644V62.5225C37.2274 62.2592 37.3793 62.0336 37.6451 61.9208L60.8449 52.9323C61.2625 52.7819 61.7182 53.0828 61.7182 53.5341V59.2506C61.7182 59.5138 61.5663 59.7395 61.3005 59.8523L53.4786 63.0866C53.2129 62.9362 52.9091 62.8234 52.5674 62.8234C51.5801 62.8234 50.8207 63.6131 50.8207 64.5534C50.8207 65.4936 51.6181 66.2833 52.5674 66.2833C53.4407 66.2833 54.2001 65.644 54.314 64.779L63.237 61.0934C63.4648 60.9805 63.6547 60.7549 63.6547 60.4916V50.751C63.6547 50.2997 63.199 49.9989 62.7814 50.1493L35.6706 60.6045C35.4048 60.7173 35.2529 60.9429 35.2529 61.2062V65.3807C35.2529 65.644 35.4048 65.9073 35.6706 65.9825L53.3647 72.564C53.5166 72.6016 53.6685 72.6016 53.8204 72.564L71.0589 66.0201C71.3247 65.9073 71.4765 65.6816 71.4765 65.4184L71.5525 46.3508L70.907 46.3884ZM52.6053 65.3807C52.1877 65.3807 51.808 65.0423 51.808 64.591C51.808 64.1397 52.1497 63.8012 52.6053 63.8012C53.023 63.8012 53.4027 64.1397 53.4027 64.591C53.4027 65.0423 53.061 65.3807 52.6053 65.3807Z" fill="#B0B0B0"/>
<path d="M81.9961 71.7739L82.7935 71.1721C83.2111 71.8115 83.7427 72.15 84.4642 72.15C85.2615 72.15 85.7931 71.661 85.7931 70.9841C85.7931 70.2319 85.0337 70.0063 84.1984 69.743C83.2871 69.4421 82.2619 69.0661 82.2619 67.8626C82.2619 66.8472 83.1732 66.0574 84.4262 66.0574C85.4514 66.0574 86.0589 66.4335 86.5905 67.0352L85.8311 67.5993C85.4894 67.1104 85.0337 66.8472 84.3882 66.8472C83.6288 66.8472 83.1732 67.2608 83.1732 67.8626C83.1732 68.5771 83.9326 68.7652 84.7299 69.0661C85.6792 69.4045 86.7044 69.7806 86.7044 71.0217C86.7044 72.0747 85.8311 73.015 84.4262 73.015C83.363 72.9773 82.5656 72.526 81.9961 71.7739Z" fill="#B0B0B0"/>
<path d="M91.792 69.5176C91.792 67.5996 93.3488 66.02 95.2853 66.02C97.2217 66.02 98.8165 67.5996 98.8165 69.5176C98.8165 71.4356 97.2597 73.0152 95.2853 73.0152C93.3867 72.9776 91.792 71.4356 91.792 69.5176ZM97.9052 69.5176C97.9052 68.0885 96.7661 66.9226 95.2853 66.9226C93.8424 66.9226 92.7033 68.0885 92.7033 69.5176C92.7033 70.9467 93.8424 72.1126 95.2853 72.1126C96.7661 72.1126 97.9052 70.9467 97.9052 69.5176Z" fill="#B0B0B0"/>
<path d="M104.095 66.0952H105.006V71.9998H107.892V72.8647H104.095V66.0952Z" fill="#B0B0B0"/>
<path d="M112.904 70.6082V66.0952H113.816V70.6835C113.816 71.4732 114.461 72.1502 115.296 72.1502C116.132 72.1502 116.777 71.4732 116.777 70.6835V66.0952H117.689V70.6082C117.689 72.0374 116.663 72.9776 115.296 72.9776C113.892 72.9776 112.904 72.0374 112.904 70.6082Z" fill="#B0B0B0"/>
<path d="M124.902 66.9602H122.928V66.0952H127.788V66.9226H125.813V72.8647H124.902V66.9602Z" fill="#B0B0B0"/>
<path d="M133.104 66.0952H134.015V72.8647H133.104V66.0952Z" fill="#B0B0B0"/>
<path d="M139.331 69.5176C139.331 67.5996 140.888 66.02 142.824 66.02C144.761 66.02 146.356 67.5996 146.356 69.5176C146.356 71.4356 144.799 73.0152 142.824 73.0152C140.888 72.9776 139.331 71.4356 139.331 69.5176ZM145.444 69.5176C145.444 68.0885 144.305 66.9226 142.824 66.9226C141.381 66.9226 140.242 68.0885 140.242 69.5176C140.242 70.9467 141.381 72.1126 142.824 72.1126C144.305 72.1126 145.444 70.9467 145.444 69.5176Z" fill="#B0B0B0"/>
<path d="M151.597 66.0952H152.622L156.305 71.4356V66.0952H157.216V72.8647H156.267L152.508 67.4491V72.8647H151.597V66.0952Z" fill="#B0B0B0"/>
<path d="M162.266 71.7739L163.063 71.1721C163.481 71.8115 164.012 72.15 164.734 72.15C165.531 72.15 166.063 71.661 166.063 70.9841C166.063 70.2319 165.303 70.0063 164.468 69.743C163.557 69.4421 162.531 69.0661 162.531 67.8626C162.531 66.8472 163.443 66.0574 164.696 66.0574C165.721 66.0574 166.328 66.4335 166.86 67.0352L166.101 67.5993C165.759 67.1104 165.303 66.8472 164.658 66.8472C163.898 66.8472 163.443 67.2608 163.443 67.8626C163.443 68.5771 164.202 68.7652 164.999 69.0661C165.949 69.4045 166.974 69.7806 166.974 71.0217C166.974 72.0747 166.101 73.015 164.696 73.015C163.595 72.9773 162.835 72.526 162.266 71.7739Z" fill="#B0B0B0"/>
<path d="M82.1859 45.8992L81.9961 60.1529H87.6157L87.7676 46.689C87.7676 45.4479 88.1093 44.2821 88.7168 43.2666L83.3251 41.4614C82.6796 42.8153 82.2999 44.3197 82.1859 45.8992Z" fill="#B0B0B0"/>
<path d="M134.053 54.5867C130.674 54.5867 127.826 52.3302 126.953 49.2839C126.801 48.7197 126.687 48.118 126.687 47.5163C126.687 47.4411 126.687 47.3658 126.687 47.253C126.687 46.9521 126.725 46.6513 126.763 46.3128C126.801 46.0119 126.763 45.7111 126.725 45.4102C126.687 44.8461 126.573 44.2819 126.459 43.7178C126.193 42.6272 125.738 41.6117 125.168 40.6339C124.826 40.0698 124.447 39.5433 123.991 39.092C123.953 39.0544 123.953 39.0168 123.915 38.9791C122.586 37.3244 120.801 36.0081 118.789 35.1807C117.346 34.6166 115.751 34.2781 114.119 34.2781C110.208 34.2781 106.714 36.0457 104.436 38.8663C102.766 36.8355 100.487 35.3311 97.8294 34.6542L96.0068 39.957C98.9305 40.4835 101.209 42.8528 101.626 45.7863L101.475 60.1527H107.094L107.246 45.8991C107.664 42.5143 110.587 39.8817 114.119 39.8817C117.84 39.8817 120.953 42.8152 121.105 46.4632C121.105 46.6137 121.105 46.7641 121.067 46.9145C121.067 47.0274 121.067 47.1402 121.067 47.2154C121.067 49.8104 121.865 52.2549 123.194 54.2858C123.307 54.4739 123.421 54.6243 123.535 54.7747C125.889 58.0091 129.762 60.1151 134.091 60.1151C138.192 60.1151 141.875 58.2347 144.267 55.2636C144.305 55.226 144.343 55.1884 144.381 55.1508C142.862 53.5712 141.723 51.6156 141.153 49.3967C140.166 52.4054 137.356 54.5867 134.053 54.5867Z" fill="#B0B0B0"/>
<path d="M167.543 50.4497C167.543 50.3369 167.506 50.2617 167.468 50.1489C167.24 49.3967 166.974 48.7197 166.556 48.0428C166.442 47.8171 166.29 47.6291 166.139 47.4034C166.101 47.3282 166.025 47.253 165.987 47.2154C165.835 47.065 165.683 46.9145 165.531 46.7265C165.493 46.6889 165.455 46.6513 165.379 46.6137C163.101 44.8837 160.367 44.2819 157.785 43.1537C157.216 42.8904 156.494 42.5143 156.228 41.9126C155.963 41.2356 156.418 40.4459 157.026 40.145C157.709 39.8065 158.545 39.8065 159.304 39.9569C160.367 40.145 161.316 40.6715 162 41.5365L164.164 39.9569L164.734 39.5432L166.974 37.8885C164.164 35.82 162.152 34.4661 158.507 34.3533C158.431 34.3533 158.317 34.3533 158.241 34.3533C157.747 34.3533 157.216 34.3909 156.646 34.4661C154.975 34.7294 153.229 35.4815 152.014 36.7226C150.799 37.9637 150.039 39.6185 150.229 41.4237C150.571 44.3571 152.507 46.1247 154.937 47.5915C156.152 48.306 157.367 48.5693 158.658 48.9454C159.911 49.3215 161.392 49.7728 161.24 51.3899C161.089 52.9319 159.456 53.9097 158.051 54.173C156.001 54.549 153.798 53.9473 151.938 53.0823C151.71 52.9695 151.482 52.8567 151.254 52.7438C151.216 52.7438 151.216 52.7062 151.178 52.7062C149.963 52.0293 148.976 51.0515 148.179 49.8856C148.065 49.6976 147.913 49.4719 147.799 49.2462C147.343 48.306 147.153 47.2906 147.078 46.2376C146.85 43.4545 145.711 40.8972 144.002 38.9039C143.85 38.7159 143.698 38.5654 143.546 38.3774C141.154 35.8952 137.813 34.3533 134.13 34.3533C130.295 34.3533 126.839 36.008 124.447 38.6783C125.928 40.2954 126.915 42.3263 127.295 44.5452C128.396 41.8374 131.054 39.9569 134.168 39.9569C137.205 39.9569 139.825 41.7998 140.964 44.3947C141.23 45.0341 141.42 45.711 141.496 46.4256C141.534 46.6889 141.534 47.4034 141.534 47.441C141.8 50.2241 142.977 52.7438 144.837 54.6995C145.027 54.9251 145.255 55.1508 145.445 55.3764C146.774 56.768 148.255 57.821 149.925 58.6484C150.609 58.9869 151.292 59.2501 152.014 59.5134C153.457 60.0399 154.785 60.2279 156.38 60.1903C158.355 60.1527 160.329 59.8519 162.152 59.0997C163.86 58.3851 165.835 57.1816 166.784 55.5645C167.43 54.4738 167.657 53.1199 167.695 51.8788C167.695 51.3523 167.581 50.901 167.543 50.4497Z" fill="#B0B0B0"/>
<path d="M90.2731 37.6258C88.8302 38.2275 87.805 39.3558 87.2734 40.6721L89.134 41.4242C89.4757 40.5593 90.1592 39.8447 91.0325 39.4686C91.7919 39.1677 92.5513 39.0925 93.3107 39.2806C93.4626 39.3182 93.6524 39.3558 93.8043 39.431L93.8803 39.2053L94.5257 37.5882C93.1968 37.0617 91.678 37.0241 90.2731 37.6258ZM92.7032 34.053C92.6652 34.053 92.6272 34.053 92.5893 34.053H92.5513C92.2855 34.053 92.0577 34.053 91.7919 34.0906L91.0705 34.1658C90.8806 34.2034 90.7287 34.241 90.5768 34.2786C90.5009 34.2786 90.425 34.3162 90.349 34.3162C90.2731 34.3162 90.1971 34.3538 90.1212 34.3915C89.7795 34.5043 89.3998 34.6171 89.058 34.7675C89.058 34.7675 89.0201 34.7675 89.0201 34.8051C88.3366 35.106 87.7291 35.4445 87.1595 35.8958C86.7418 36.2343 86.3621 36.5727 86.0204 36.9488C85.9065 37.0993 85.7926 37.2121 85.6787 37.3625C85.5648 37.513 85.4129 37.6634 85.337 37.8514C85.299 37.889 85.261 37.9643 85.223 38.0019C85.1851 38.0395 85.1851 38.0771 85.1851 38.0771C85.1091 38.1523 85.0712 38.2651 84.9952 38.3403C84.9952 38.378 84.9572 38.378 84.9572 38.378C84.7674 38.6788 84.4257 39.4686 84.3877 39.5062L86.2862 40.2584C86.9317 38.6788 88.1847 37.3249 89.8934 36.6104C91.602 35.8958 93.4626 35.8958 95.0573 36.5351L95.8167 34.6923C94.7536 34.2786 93.7284 34.0906 92.7032 34.053Z" fill="#B0B0B0"/>
</svg>
