<svg width="241" height="106" viewBox="0 0 241 106" fill="none" xmlns="http://www.w3.org/2000/svg">
<path fill-rule="evenodd" clip-rule="evenodd" d="M49.5102 67.6139L53.8164 47.1125L41.0173 48.9014L39.4969 56.0924L43.4923 55.52L41.0396 67.2038C38.9485 66.6518 37.2082 65.7307 35.8186 64.4405C33.4187 62.1855 32.2188 58.5429 32.2188 53.5127C32.2188 50.0435 32.7616 47.2537 33.8473 45.1433C34.9329 43.004 36.5186 41.4574 38.6043 40.5033C40.7185 39.5204 43.2898 39.029 46.3183 39.029C49.3468 39.029 51.9038 39.5204 53.9895 40.5033C56.1037 41.4574 57.7036 43.004 58.7893 45.1433C59.875 47.2537 60.4178 50.0435 60.4178 53.5127C60.4178 58.5429 59.2036 62.1855 56.7751 64.4405C54.9503 66.1348 52.5287 67.1926 49.5102 67.6139Z" fill="#B0B0B0"/>
<path d="M63.1629 67.4117V46.857H70.6551L70.868 48.4181C71.6342 47.8977 72.6417 47.4351 73.8904 47.0304C75.1675 46.6257 76.5297 46.4233 77.9771 46.4233C80.5029 46.4233 82.3476 47.0593 83.5111 48.3313C84.6747 49.6034 85.2565 51.5692 85.2565 54.2289V67.4117H77.2534V55.0528C77.2534 54.1277 77.0547 53.4628 76.6574 53.0581C76.2601 52.6533 75.5648 52.451 74.5715 52.451C73.9756 52.451 73.3512 52.5955 72.6985 52.8846C72.0741 53.1737 71.5633 53.5206 71.166 53.9253V67.4117H63.1629Z" fill="#B0B0B0"/>
<path d="M99.7155 67.8453C97.36 67.8453 95.2741 67.455 93.4578 66.6745C91.6698 65.865 90.2651 64.6653 89.2434 63.0752C88.2501 61.4852 87.7534 59.5194 87.7534 57.1777C87.7534 53.9109 88.6616 51.309 90.4779 49.3721C92.2942 47.4062 95.0045 46.4233 98.6087 46.4233C101.901 46.4233 104.469 47.2761 106.314 48.9818C108.187 50.6875 109.123 53.0147 109.123 55.9635V59.5627H95.118C95.4869 60.6613 96.2106 61.4418 97.289 61.9044C98.3675 62.3669 99.829 62.5982 101.674 62.5982C102.837 62.5982 104.001 62.497 105.164 62.2947C106.356 62.0634 107.307 61.8032 108.017 61.5141V66.4143C106.03 67.3683 103.263 67.8453 99.7155 67.8453ZM95.118 55.1395H102.227V54.4024C102.227 53.5929 101.972 52.928 101.461 52.4076C100.978 51.8872 100.113 51.627 98.8641 51.627C97.4735 51.627 96.4944 51.9306 95.9268 52.5377C95.3876 53.1159 95.118 53.9832 95.118 55.1395Z" fill="#B0B0B0"/>
<path d="M126.524 67.8453C121.558 67.8453 117.769 66.6022 115.158 64.116C112.547 61.6297 111.242 58.1172 111.242 53.5784C111.242 48.8951 112.519 45.3103 115.073 42.8241C117.627 40.3089 121.43 39.0514 126.481 39.0514C128.184 39.0514 129.703 39.1815 131.036 39.4416C132.37 39.7018 133.647 40.0632 134.868 40.5258V47.6375C132.427 46.5389 129.816 45.9897 127.035 45.9897C124.452 45.9897 122.537 46.5968 121.288 47.811C120.039 48.9963 119.415 50.9188 119.415 53.5784C119.415 56.1803 120.068 58.0594 121.373 59.2158C122.707 60.3433 124.623 60.907 127.12 60.907C128.482 60.907 129.802 60.7769 131.079 60.5167C132.384 60.2565 133.676 59.8518 134.953 59.3025V66.4577C133.732 66.8913 132.441 67.2238 131.079 67.455C129.745 67.7152 128.227 67.8453 126.524 67.8453Z" fill="#B0B0B0"/>
<path d="M144.804 67.8453C142.335 67.8453 140.576 67.3105 139.526 66.2408C138.476 65.1712 137.951 63.4944 137.951 61.2106V38.1841H145.954V60.2999C145.954 60.9359 146.081 61.3696 146.337 61.6008C146.592 61.8032 146.99 61.9044 147.529 61.9044C147.898 61.9044 148.252 61.8755 148.593 61.8177C148.962 61.7598 149.302 61.6731 149.615 61.5575V66.978C148.877 67.2671 148.153 67.4839 147.444 67.6285C146.762 67.773 145.883 67.8453 144.804 67.8453Z" fill="#B0B0B0"/>
<path d="M151.453 44.125V38.2274H160.094V44.125H151.453ZM152.091 67.4117V52.7979H149.154L149.835 46.857H160.094V67.4117H152.091Z" fill="#B0B0B0"/>
<path d="M174.958 67.8453C171.297 67.8453 168.403 66.9636 166.274 65.2001C164.146 63.4077 163.082 60.7191 163.082 57.1343C163.082 54.7059 163.578 52.6967 164.572 51.1067C165.565 49.5166 166.955 48.3458 168.743 47.5942C170.531 46.8136 172.617 46.4233 175.001 46.4233C176.505 46.4233 177.853 46.5389 179.045 46.7702C180.237 46.9726 181.372 47.334 182.451 47.8543V53.5784C180.776 52.769 178.875 52.3642 176.746 52.3642C174.93 52.3642 173.554 52.7111 172.617 53.405C171.709 54.0988 171.255 55.3419 171.255 57.1343C171.255 58.8111 171.695 60.0253 172.575 60.7769C173.454 61.5286 174.845 61.9044 176.746 61.9044C177.768 61.9044 178.761 61.7888 179.726 61.5575C180.691 61.2973 181.614 60.9359 182.493 60.4734V66.4577C181.415 66.9491 180.251 67.296 179.003 67.4984C177.782 67.7297 176.434 67.8453 174.958 67.8453Z" fill="#B0B0B0"/>
<path d="M185.467 67.4117V38.1841H193.47V52.6244L199.089 46.857H208.157L200.111 55.5298L208.625 67.4117H200.111L195.13 59.7795L193.47 61.4707V67.4117H185.467Z" fill="#B0B0B0"/>
</svg>
