<svg width="271" height="108" viewBox="0 0 271 108" fill="none" xmlns="http://www.w3.org/2000/svg">
<path d="M55.0084 34.6296H61.1383C61.7032 34.6296 62.1578 35.1363 62.1578 35.7662V44.7582C62.1578 45.0623 62.0474 45.3519 61.8591 45.5618L55.7746 52.3456C55.1318 53.0624 54.0344 52.5556 54.0279 51.542L53.9824 35.7662C53.9824 35.1363 54.437 34.6223 55.0019 34.6223L55.0084 34.6296Z" fill="#B0B0B0"/>
<path d="M73.1311 57.3993L68.7868 62.2444C68.3901 62.6869 68.3901 63.4122 68.7868 63.8619L76.578 72.5513C76.7731 72.7689 77.0333 72.8849 77.2999 72.8849H85.9171C86.8276 72.8849 87.2828 71.6591 86.6455 70.9338L74.5749 57.3993C74.1782 56.9496 73.5279 56.9496 73.1246 57.3993H73.1311Z" fill="#B0B0B0"/>
<path d="M43.4539 58.8529L47.9653 53.8288C48.3619 53.3872 49.0119 53.3872 49.415 53.8288L53.5819 58.4692C53.9785 58.9108 54.6285 58.9108 55.0316 58.4692L76.0288 35.0862C76.2238 34.869 76.4838 34.7532 76.7504 34.7532H85.9163C86.8264 34.7532 87.288 35.9839 86.6379 36.7006L54.9081 72.043C54.505 72.4918 53.842 72.4846 53.4454 72.0285L43.4409 60.4528C43.0508 60.004 43.0573 59.2945 43.4539 58.8529Z" fill="#B0B0B0"/>
<path d="M120.112 67L112.84 58.2235L120.076 49.8052H124.769L116.458 59.2624L116.637 57.0055L125.127 67H120.112ZM109.186 67V41.2079H113.127V67H109.186ZM133.808 67.3582C132.256 67.3582 130.847 66.9642 129.581 66.1761C128.339 65.388 127.348 64.3253 126.608 62.9879C125.891 61.6266 125.533 60.1102 125.533 58.4384C125.533 56.7429 125.891 55.2264 126.608 53.889C127.348 52.5277 128.339 51.4531 129.581 50.665C130.847 49.853 132.256 49.447 133.808 49.447C135.121 49.447 136.28 49.7336 137.283 50.3068C138.31 50.856 139.122 51.6202 139.719 52.5994C140.316 53.5785 140.614 54.689 140.614 55.9309V60.8744C140.614 62.1162 140.316 63.2267 139.719 64.2059C139.145 65.185 138.345 65.9612 137.318 66.5343C136.292 67.0836 135.121 67.3582 133.808 67.3582ZM134.453 63.6327C135.909 63.6327 137.08 63.1431 137.963 62.164C138.871 61.1848 139.325 59.931 139.325 58.4026C139.325 57.3757 139.122 56.4682 138.716 55.6801C138.31 54.892 137.736 54.283 136.996 53.8532C136.28 53.3994 135.432 53.1726 134.453 53.1726C133.497 53.1726 132.65 53.3994 131.909 53.8532C131.193 54.283 130.62 54.892 130.19 55.6801C129.784 56.4682 129.581 57.3757 129.581 58.4026C129.581 59.4295 129.784 60.337 130.19 61.1251C130.62 61.9132 131.193 62.5341 131.909 62.9879C132.65 63.4178 133.497 63.6327 134.453 63.6327ZM139.074 67V62.3789L139.754 58.1877L139.074 54.0323V49.8052H143.014V67H139.074ZM153.012 67.3582C152.056 67.3582 151.137 67.2388 150.253 67C149.37 66.7373 148.558 66.3791 147.817 65.9253C147.077 65.4477 146.432 64.8745 145.883 64.2059L148.39 61.6983C148.987 62.3909 149.668 62.9162 150.432 63.2745C151.22 63.6088 152.104 63.776 153.083 63.776C153.967 63.776 154.635 63.6446 155.089 63.3819C155.543 63.1192 155.77 62.7371 155.77 62.2356C155.77 61.7102 155.555 61.3042 155.125 61.0177C154.695 60.7311 154.134 60.4923 153.441 60.3012C152.773 60.0863 152.056 59.8713 151.292 59.6564C150.552 59.4415 149.835 59.1549 149.143 58.7967C148.474 58.4146 147.925 57.9011 147.495 57.2563C147.065 56.6115 146.85 55.7756 146.85 54.7487C146.85 53.6502 147.101 52.7069 147.602 51.9188C148.128 51.1307 148.856 50.5217 149.787 50.0918C150.743 49.662 151.877 49.447 153.191 49.447C154.576 49.447 155.794 49.6978 156.844 50.1993C157.919 50.6769 158.815 51.4053 159.531 52.3845L157.024 54.892C156.522 54.2711 155.949 53.8054 155.304 53.495C154.659 53.1845 153.919 53.0293 153.083 53.0293C152.295 53.0293 151.686 53.1487 151.256 53.3875C150.826 53.6263 150.611 53.9726 150.611 54.4263C150.611 54.904 150.826 55.2741 151.256 55.5368C151.686 55.7995 152.235 56.0264 152.904 56.2175C153.597 56.4085 154.313 56.6234 155.053 56.8623C155.818 57.0772 156.534 57.3877 157.203 57.7936C157.895 58.1757 158.457 58.7011 158.886 59.3698C159.316 60.0146 159.531 60.8624 159.531 61.9132C159.531 63.5849 158.946 64.9104 157.776 65.8895C156.606 66.8687 155.018 67.3582 153.012 67.3582ZM168.404 67.3582C167.449 67.3582 166.529 67.2388 165.646 67C164.762 66.7373 163.95 66.3791 163.21 65.9253C162.469 65.4477 161.825 64.8745 161.275 64.2059L163.783 61.6983C164.38 62.3909 165.061 62.9162 165.825 63.2745C166.613 63.6088 167.496 63.776 168.476 63.776C169.359 63.776 170.028 63.6446 170.482 63.3819C170.935 63.1192 171.162 62.7371 171.162 62.2356C171.162 61.7102 170.947 61.3042 170.517 61.0177C170.088 60.7311 169.526 60.4923 168.834 60.3012C168.165 60.0863 167.449 59.8713 166.684 59.6564C165.944 59.4415 165.228 59.1549 164.535 58.7967C163.866 58.4146 163.317 57.9011 162.887 57.2563C162.457 56.6115 162.242 55.7756 162.242 54.7487C162.242 53.6502 162.493 52.7069 162.995 51.9188C163.52 51.1307 164.249 50.5217 165.18 50.0918C166.135 49.662 167.27 49.447 168.583 49.447C169.968 49.447 171.186 49.6978 172.237 50.1993C173.312 50.6769 174.207 51.4053 174.924 52.3845L172.416 54.892C171.915 54.2711 171.341 53.8054 170.697 53.495C170.052 53.1845 169.311 53.0293 168.476 53.0293C167.687 53.0293 167.079 53.1487 166.649 53.3875C166.219 53.6263 166.004 53.9726 166.004 54.4263C166.004 54.904 166.219 55.2741 166.649 55.5368C167.079 55.7995 167.628 56.0264 168.296 56.2175C168.989 56.4085 169.705 56.6234 170.446 56.8623C171.21 57.0772 171.926 57.3877 172.595 57.7936C173.288 58.1757 173.849 58.7011 174.279 59.3698C174.709 60.0146 174.924 60.8624 174.924 61.9132C174.924 63.5849 174.339 64.9104 173.168 65.8895C171.998 66.8687 170.41 67.3582 168.404 67.3582ZM185.373 67.3582C183.82 67.3582 182.411 66.9642 181.146 66.1761C179.904 65.388 178.913 64.3253 178.172 62.9879C177.456 61.6266 177.098 60.1102 177.098 58.4384C177.098 56.7429 177.456 55.2264 178.172 53.889C178.913 52.5277 179.904 51.4531 181.146 50.665C182.411 49.853 183.82 49.447 185.373 49.447C186.686 49.447 187.844 49.7336 188.847 50.3068C189.874 50.856 190.686 51.6202 191.283 52.5994C191.88 53.5785 192.179 54.689 192.179 55.9309V60.8744C192.179 62.1162 191.88 63.2267 191.283 64.2059C190.71 65.185 189.91 65.9612 188.883 66.5343C187.856 67.0836 186.686 67.3582 185.373 67.3582ZM186.017 63.6327C187.474 63.6327 188.644 63.1431 189.528 62.164C190.435 61.1848 190.889 59.931 190.889 58.4026C190.889 57.3757 190.686 56.4682 190.28 55.6801C189.874 54.892 189.301 54.283 188.561 53.8532C187.844 53.3994 186.997 53.1726 186.017 53.1726C185.062 53.1726 184.214 53.3994 183.474 53.8532C182.758 54.283 182.184 54.892 181.755 55.6801C181.349 56.4682 181.146 57.3757 181.146 58.4026C181.146 59.4295 181.349 60.337 181.755 61.1251C182.184 61.9132 182.758 62.5341 183.474 62.9879C184.214 63.4178 185.062 63.6327 186.017 63.6327ZM190.638 67V62.3789L191.319 58.1877L190.638 54.0323V49.8052H194.579V67H190.638ZM198.952 67V49.8052H202.893V67H198.952ZM210.379 67V56.7548C210.379 55.6085 210.021 54.7249 209.305 54.1039C208.588 53.4591 207.705 53.1367 206.654 53.1367C205.937 53.1367 205.293 53.28 204.719 53.5666C204.17 53.8532 203.728 54.2711 203.394 54.8204C203.06 55.3458 202.893 55.9906 202.893 56.7548L201.352 55.8951C201.352 54.5816 201.639 53.4472 202.212 52.4919C202.785 51.5367 203.561 50.7963 204.54 50.2709C205.52 49.7217 206.618 49.447 207.836 49.447C209.054 49.447 210.153 49.7097 211.132 50.2351C212.111 50.7605 212.887 51.5008 213.46 52.4561C214.033 53.4114 214.32 54.5577 214.32 55.8951V67H210.379ZM221.807 67V56.7548C221.807 55.6085 221.449 54.7249 220.732 54.1039C220.016 53.4591 219.132 53.1367 218.081 53.1367C217.389 53.1367 216.756 53.28 216.183 53.5666C215.609 53.8532 215.156 54.2711 214.821 54.8204C214.487 55.3458 214.32 55.9906 214.32 56.7548L212.099 55.8951C212.218 54.5816 212.6 53.4472 213.245 52.4919C213.89 51.5367 214.714 50.7963 215.717 50.2709C216.744 49.7217 217.866 49.447 219.084 49.447C220.326 49.447 221.449 49.7097 222.452 50.2351C223.455 50.7605 224.255 51.5008 224.852 52.4561C225.449 53.4114 225.747 54.5577 225.747 55.8951V67H221.807Z" fill="#B0B0B0"/>
</svg>
