<svg width="27" height="28" viewBox="0 0 27 28" fill="none" xmlns="http://www.w3.org/2000/svg">
<path d="M25.089 0.847656H2.36661C1.32544 0.847656 0.479492 1.70544 0.479492 2.75844V25.4394C0.479492 26.4924 1.32544 27.3502 2.36661 27.3502H25.089C26.1301 27.3502 26.982 26.4924 26.982 25.4394V2.75844C26.982 1.70544 26.1301 0.847656 25.089 0.847656ZM8.4894 23.5641H4.56135V10.9162H8.49532V23.5641H8.4894ZM6.52538 9.18885C5.26532 9.18885 4.24782 8.16542 4.24782 6.91129C4.24782 5.65715 5.26532 4.63373 6.52538 4.63373C7.77951 4.63373 8.80294 5.65715 8.80294 6.91129C8.80294 8.17134 7.78543 9.18885 6.52538 9.18885ZM23.2137 23.5641H19.2856V17.4117C19.2856 15.9446 19.256 14.0575 17.2447 14.0575C15.1978 14.0575 14.8843 15.6547 14.8843 17.3052V23.5641H10.9563V10.9162H14.7246V12.6436H14.7778C15.3043 11.6498 16.588 10.6027 18.4988 10.6027C22.4742 10.6027 23.2137 13.2234 23.2137 16.6308V23.5641Z" fill="white"/>
</svg>
