<svg width="39" height="39" viewBox="0 0 39 39" fill="none" xmlns="http://www.w3.org/2000/svg">
<path d="M36.1452 0.529297H3.47412C1.97708 0.529297 0.760742 1.76265 0.760742 3.27669V35.8882C0.760742 37.4023 1.97708 38.6356 3.47412 38.6356H36.1452C37.6422 38.6356 38.8671 37.4023 38.8671 35.8882V3.27669C38.8671 1.76265 37.6422 0.529297 36.1452 0.529297ZM12.2777 33.1919H6.62979V15.0063H12.2862V33.1919H12.2777ZM9.45374 12.5226C7.64199 12.5226 6.17898 11.0511 6.17898 9.24782C6.17898 7.44457 7.64199 5.97306 9.45374 5.97306C11.257 5.97306 12.7285 7.44457 12.7285 9.24782C12.7285 11.0596 11.2655 12.5226 9.45374 12.5226ZM33.4488 33.1919H27.8009V24.3457C27.8009 22.2363 27.7584 19.5229 24.8664 19.5229C21.9234 19.5229 21.4725 21.8195 21.4725 24.1926V33.1919H15.8246V15.0063H21.2429V17.49H21.3194C22.0765 16.061 23.9222 14.5555 26.6696 14.5555C32.3856 14.5555 33.4488 18.3236 33.4488 23.223V33.1919Z" fill="#909090"/>
</svg>
