<svg width="31" height="26" viewBox="0 0 31 26" fill="none" xmlns="http://www.w3.org/2000/svg">
<path d="M27.1751 6.92954C27.1944 7.19859 27.1944 7.4677 27.1944 7.73674C27.1944 15.9431 20.9483 25.3987 9.53244 25.3987C6.01542 25.3987 2.74827 24.38 0 22.612C0.499702 22.6696 0.980119 22.6888 1.49905 22.6888C4.40101 22.6888 7.07244 21.7087 9.20572 20.0367C6.47667 19.979 4.18964 18.1917 3.40167 15.7317C3.78607 15.7893 4.17042 15.8278 4.57405 15.8278C5.13137 15.8278 5.68875 15.7509 6.20762 15.6164C3.36327 15.0398 1.22994 12.5414 1.22994 9.52407V9.44722C2.05631 9.90847 3.01732 10.1967 4.03583 10.2351C2.36381 9.12044 1.26839 7.21782 1.26839 5.06532C1.26839 3.91222 1.57583 2.8552 2.11399 1.9327C5.16976 5.69954 9.76304 8.15949 14.9136 8.42859C14.8175 7.96734 14.7598 7.48693 14.7598 7.00645C14.7598 3.5855 17.5273 0.798828 20.9674 0.798828C22.7548 0.798828 24.3691 1.54835 25.503 2.75913C26.906 2.49008 28.2513 1.97115 29.4429 1.26008C28.9816 2.70151 28.0014 3.91228 26.7138 4.68097C27.963 4.54651 29.1738 4.2005 30.2885 3.72008C29.443 4.95002 28.3859 6.04544 27.1751 6.92954V6.92954Z" fill="white"/>
</svg>
