<svg width="44" height="37" viewBox="0 0 44 37" fill="none" xmlns="http://www.w3.org/2000/svg">
<path d="M39.0734 9.71146C39.1011 10.0983 39.1011 10.4852 39.1011 10.8721C39.1011 22.6714 30.1203 36.2671 13.7061 36.2671C8.6492 36.2671 3.95157 34.8024 0 32.2603C0.718491 32.3431 1.40925 32.3708 2.15539 32.3708C6.32794 32.3708 10.169 30.9615 13.2363 28.5574C9.3124 28.4745 6.02403 25.9046 4.89105 22.3675C5.44376 22.4504 5.99639 22.5057 6.57674 22.5057C7.37808 22.5057 8.1795 22.3951 8.92555 22.2017C4.83584 21.3727 1.76846 17.7804 1.76846 13.442V13.3315C2.95664 13.9947 4.33842 14.4092 5.80288 14.4644C3.39878 12.8616 1.82374 10.126 1.82374 7.03101C1.82374 5.37304 2.26579 3.85321 3.03957 2.52681C7.43328 7.94292 14.0377 11.4799 21.4433 11.8669C21.3052 11.2036 21.2222 10.5129 21.2222 9.82204C21.2222 4.90326 25.2015 0.896484 30.1478 0.896484C32.7177 0.896484 35.0388 1.97418 36.6692 3.71508C38.6864 3.32823 40.6207 2.58209 42.3341 1.55969C41.6708 3.63223 40.2615 5.37313 38.4101 6.47838C40.2063 6.28504 41.9472 5.78753 43.5499 5.09677C42.3342 6.86523 40.8143 8.44026 39.0734 9.71146V9.71146Z" fill="#909090"/>
</svg>
